<?xml version="1.0" standalone="no"?>
<!DOCTYPE svg PUBLIC "-//W3C//DTD SVG 20010904//EN"
 "http://www.w3.org/TR/2001/REC-SVG-20010904/DTD/svg10.dtd">
<svg version="1.0" xmlns="http://www.w3.org/2000/svg"
 width="344.000000pt" height="344.000000pt" viewBox="0 0 344.000000 344.000000"
 preserveAspectRatio="xMidYMid meet">
<metadata>
Created by potrace 1.14, written by Peter Selinger 2001-2017
</metadata>
<g transform="translate(0.000000,344.000000) scale(0.100000,-0.100000)"
fill="#000000" stroke="none">
<path d="M1550 3404 c-580 -72 -1066 -406 -1329 -914 -260 -504 -251 -1109 25
-1602 280 -500 794 -828 1359 -867 511 -35 986 145 1341 510 633 652 644 1673
24 2341 -241 260 -561 438 -915 508 -83 17 -154 23 -290 25 -99 2 -196 1 -215
-1z m475 -867 l280 -162 3 -332 2 -331 -106 -61 c-58 -34 -110 -61 -115 -61
-5 0 -9 141 -9 329 l0 329 -284 164 c-157 89 -282 166 -278 170 17 16 199 117
212 117 8 1 141 -72 295 -162z m-290 -160 l280 -162 3 -128 c1 -70 0 -127 -3
-127 -3 0 -126 70 -274 155 -147 85 -274 157 -283 160 -10 4 -121 -55 -293
-154 -153 -89 -282 -161 -286 -161 -5 0 -9 56 -9 124 l0 124 287 166 c158 91
290 166 293 166 3 -1 131 -74 285 -163z m747 -109 l108 -63 0 -332 0 -331
-267 -155 c-148 -85 -278 -159 -290 -165 -18 -10 -36 -3 -133 52 l-111 64 285
163 285 164 1 333 c0 182 3 332 7 332 3 0 55 -28 115 -62z m-918 -119 l106
-62 -52 -31 c-29 -18 -158 -92 -285 -165 l-233 -134 0 -330 c0 -313 -1 -329
-18 -325 -10 3 -62 31 -115 62 l-97 57 2 332 3 331 280 163 c154 89 285 162
291 163 6 0 59 -28 118 -61z m-182 -640 l3 -331 274 -158 c150 -87 277 -162
282 -167 5 -5 -37 -35 -100 -71 l-110 -63 -283 164 -283 164 -3 336 -2 335
102 60 c57 33 106 61 110 61 4 1 9 -148 10 -330z m387 -228 l244 -141 281 162
c155 89 284 163 289 165 4 2 7 -53 7 -124 l0 -128 -286 -165 c-158 -91 -291
-164 -296 -162 -6 1 -135 75 -289 164 l-279 161 0 129 0 129 43 -25 c23 -13
152 -88 286 -165z"/>
</g>
</svg>
